<svg
    width="32"
    height="32"
    viewBox="0 0 32 32"
    fill="none"
    xmlns="http://www.w3.org/2000/svg"
  >
    <path
      d="M12.7599 25.5935C12.5066 25.5935 12.2533 25.5002 12.0533 25.3002L3.95992 17.2068C3.57326 16.8202 3.57326 16.1802 3.95992 15.7935L12.0533 7.70016C12.4399 7.31349 13.0799 7.31349 13.4666 7.70016C13.8533 8.08682 13.8533 8.72682 13.4666 9.11349L6.07992 16.5002L13.4666 23.8868C13.8533 24.2735 13.8533 24.9135 13.4666 25.3002C13.2799 25.5002 13.0133 25.5935 12.7599 25.5935Z"
      fill="#292D32"
    />
    <path
      d="M27.3326 17.5H4.89258C4.34591 17.5 3.89258 17.0467 3.89258 16.5C3.89258 15.9533 4.34591 15.5 4.89258 15.5H27.3326C27.8792 15.5 28.3326 15.9533 28.3326 16.5C28.3326 17.0467 27.8792 17.5 27.3326 17.5Z"
      fill="#292D32"
    />
</svg>